<!-- <svg xmlns="http://www.w3.org/2000/svg" width="20" height="20"><path fill="#178FF5" d="M18.896 0H1.104C.494 0 0 .494 0 1.104v17.793C0 19.506.494 20 1.104 20h9.58v-7.745H8.076V9.237h2.606V7.01c0-2.583 1.578-3.99 3.883-3.99 1.104 0 2.052.082 2.329.119v2.7h-1.598c-1.254 0-1.496.597-1.496 1.47v1.928h2.989l-.39 3.018h-2.6V20h5.098c.608 0 1.102-.494 1.102-1.104V1.104C20 .494 19.506 0 18.896 0z"/></svg> -->
<svg aria-hidden="true">
    <defs>
 <symbol id="svg--facebook" width="24" height="24" viewBox="0 0 24 24">
        <path d="M20 3H4a1 1 0 0 0-1 1v16a1 1 0 0 0 1 1h8.615v-6.96h-2.338v-2.725h2.338v-2c0-2.325 1.42-3.592 3.5-3.592.699-.002 1.399.034 2.095.107v2.42h-1.435c-1.128 0-1.348.538-1.348 1.325v1.735h2.697l-.35 2.725h-2.348V21H20a1 1 0 0 0 1-1V4a1 1 0 0 0-1-1z"></path>
      </symbol>
      </defs>
      </svg>